<svg width="197" height="96" viewBox="0 0 197 96" fill="none" xmlns="http://www.w3.org/2000/svg">
<path d="M27.5675 18.2756C27.4538 17.1297 26.9661 16.2396 26.1044 15.6051C25.2427 14.9706 24.0732 14.6534 22.5959 14.6534C21.5921 14.6534 20.7446 14.7955 20.0533 15.0795C19.362 15.3542 18.8317 15.7377 18.4624 16.2301C18.1025 16.7225 17.9226 17.2812 17.9226 17.9062C17.9036 18.4271 18.0125 18.8816 18.2493 19.2699C18.4955 19.6581 18.8317 19.9943 19.2578 20.2784C19.6839 20.553 20.1764 20.7945 20.7351 21.0028C21.2938 21.2017 21.8904 21.3722 22.5249 21.5142L25.1385 22.1392C26.4074 22.4233 27.5722 22.8021 28.6328 23.2756C29.6934 23.7491 30.612 24.3314 31.3885 25.0227C32.165 25.714 32.7663 26.5284 33.1925 27.4659C33.6281 28.4034 33.8506 29.4782 33.8601 30.6903C33.8506 32.4706 33.3961 34.0142 32.4964 35.321C31.6063 36.6184 30.3184 37.6269 28.6328 38.3466C26.9567 39.0568 24.9349 39.4119 22.5675 39.4119C20.219 39.4119 18.1735 39.0521 16.4311 38.3324C14.6982 37.6127 13.344 36.5473 12.3686 35.1364C11.4027 33.7159 10.8961 31.9593 10.8487 29.8665H16.8004C16.8667 30.8419 17.1461 31.6562 17.6385 32.3097C18.1404 32.9536 18.808 33.4413 19.6413 33.7727C20.4841 34.0947 21.4358 34.2557 22.4964 34.2557C23.5381 34.2557 24.4425 34.1042 25.2095 33.8011C25.986 33.4981 26.5874 33.0767 27.0135 32.5369C27.4396 31.9972 27.6527 31.3769 27.6527 30.6761C27.6527 30.0227 27.4586 29.4735 27.0703 29.0284C26.6915 28.5833 26.1328 28.2045 25.3942 27.892C24.665 27.5795 23.7701 27.2955 22.7095 27.0398L19.5419 26.2443C17.0893 25.6477 15.1527 24.715 13.7322 23.446C12.3118 22.1771 11.6063 20.4678 11.6158 18.3182C11.6063 16.5568 12.075 15.018 13.022 13.7017C13.9785 12.3854 15.29 11.358 16.9567 10.6193C18.6233 9.88068 20.5173 9.51136 22.6385 9.51136C24.7976 9.51136 26.6821 9.88068 28.2919 10.6193C29.9112 11.358 31.1707 12.3854 32.0703 13.7017C32.9699 15.018 33.4339 16.5426 33.4624 18.2756H27.5675ZM47.8267 39.4261C45.5824 39.4261 43.6506 38.9716 42.0312 38.0625C40.4214 37.1439 39.1809 35.8466 38.3097 34.1705C37.4384 32.4848 37.0028 30.4915 37.0028 28.1903C37.0028 25.946 37.4384 23.9763 38.3097 22.2812C39.1809 20.5862 40.4072 19.2652 41.9886 18.3182C43.5795 17.3712 45.4451 16.8977 47.5852 16.8977C49.0246 16.8977 50.3646 17.1297 51.6051 17.5938C52.8551 18.0483 53.9441 18.7348 54.8722 19.6534C55.8097 20.572 56.5388 21.7273 57.0597 23.1193C57.5805 24.5019 57.8409 26.1212 57.8409 27.9773V29.6392H39.4176V25.8892H52.1449C52.1449 25.018 51.9555 24.2462 51.5767 23.5739C51.1979 22.9015 50.6723 22.3759 50 21.9972C49.3371 21.6089 48.5653 21.4148 47.6847 21.4148C46.7661 21.4148 45.9517 21.6278 45.2415 22.054C44.5407 22.4706 43.9915 23.0341 43.5938 23.7443C43.196 24.4451 42.9924 25.2263 42.983 26.0881V29.6534C42.983 30.733 43.1818 31.6657 43.5795 32.4517C43.9867 33.2377 44.5597 33.8438 45.2983 34.2699C46.0369 34.696 46.9129 34.9091 47.9261 34.9091C48.5985 34.9091 49.214 34.8144 49.7727 34.625C50.3314 34.4356 50.8097 34.1515 51.2074 33.7727C51.6051 33.3939 51.9081 32.9299 52.1165 32.3807L57.7131 32.75C57.429 34.0947 56.8466 35.2689 55.9659 36.2727C55.0947 37.267 53.9678 38.0436 52.5852 38.6023C51.2121 39.1515 49.6259 39.4261 47.8267 39.4261ZM61.7898 39V17.1818H67.6562V20.9886H67.8835C68.2813 19.6345 68.9489 18.6117 69.8864 17.9205C70.8239 17.2197 71.9034 16.8693 73.125 16.8693C73.428 16.8693 73.7547 16.8883 74.1051 16.9261C74.4555 16.964 74.7633 17.0161 75.0284 17.0824V22.4517C74.7443 22.3665 74.3513 22.2907 73.8494 22.2244C73.3475 22.1581 72.8883 22.125 72.4716 22.125C71.5814 22.125 70.786 22.3191 70.0852 22.7074C69.3939 23.0862 68.8447 23.6165 68.4375 24.2983C68.0398 24.9801 67.8409 25.7661 67.8409 26.6562V39H61.7898ZM78.157 39V17.1818H84.2081V39H78.157ZM81.1967 14.3693C80.2971 14.3693 79.5253 14.071 78.8814 13.4744C78.2469 12.8684 77.9297 12.1439 77.9297 11.3011C77.9297 10.4678 78.2469 9.75284 78.8814 9.15625C79.5253 8.55019 80.2971 8.24716 81.1967 8.24716C82.0964 8.24716 82.8634 8.55019 83.4979 9.15625C84.1418 9.75284 84.4638 10.4678 84.4638 11.3011C84.4638 12.1439 84.1418 12.8684 83.4979 13.4744C82.8634 14.071 82.0964 14.3693 81.1967 14.3693ZM98.9986 39.4261C96.7543 39.4261 94.8224 38.9716 93.2031 38.0625C91.5933 37.1439 90.3527 35.8466 89.4815 34.1705C88.6103 32.4848 88.1747 30.4915 88.1747 28.1903C88.1747 25.946 88.6103 23.9763 89.4815 22.2812C90.3527 20.5862 91.5791 19.2652 93.1605 18.3182C94.7514 17.3712 96.617 16.8977 98.7571 16.8977C100.196 16.8977 101.536 17.1297 102.777 17.5938C104.027 18.0483 105.116 18.7348 106.044 19.6534C106.982 20.572 107.711 21.7273 108.232 23.1193C108.752 24.5019 109.013 26.1212 109.013 27.9773V29.6392H90.5895V25.8892H103.317C103.317 25.018 103.127 24.2462 102.749 23.5739C102.37 22.9015 101.844 22.3759 101.172 21.9972C100.509 21.6089 99.7372 21.4148 98.8565 21.4148C97.938 21.4148 97.1236 21.6278 96.4134 22.054C95.7126 22.4706 95.1634 23.0341 94.7656 23.7443C94.3679 24.4451 94.1643 25.2263 94.1548 26.0881V29.6534C94.1548 30.733 94.3537 31.6657 94.7514 32.4517C95.1586 33.2377 95.7315 33.8438 96.4702 34.2699C97.2088 34.696 98.0848 34.9091 99.098 34.9091C99.7704 34.9091 100.386 34.8144 100.945 34.625C101.503 34.4356 101.982 34.1515 102.379 33.7727C102.777 33.3939 103.08 32.9299 103.288 32.3807L108.885 32.75C108.601 34.0947 108.018 35.2689 107.138 36.2727C106.267 37.267 105.14 38.0436 103.757 38.6023C102.384 39.1515 100.798 39.4261 98.9986 39.4261ZM131.115 23.4034L125.575 23.7443C125.481 23.2708 125.277 22.8447 124.964 22.4659C124.652 22.0777 124.24 21.7699 123.729 21.5426C123.227 21.3059 122.625 21.1875 121.925 21.1875C120.987 21.1875 120.196 21.3864 119.553 21.7841C118.909 22.1723 118.587 22.6932 118.587 23.3466C118.587 23.8674 118.795 24.3078 119.212 24.6676C119.628 25.0275 120.343 25.3163 121.357 25.5341L125.305 26.3295C127.427 26.7652 129.008 27.4659 130.05 28.4318C131.091 29.3977 131.612 30.6667 131.612 32.2386C131.612 33.6686 131.191 34.9233 130.348 36.0028C129.515 37.0824 128.369 37.9252 126.911 38.5312C125.462 39.1278 123.79 39.4261 121.896 39.4261C119.008 39.4261 116.707 38.8248 114.993 37.6222C113.288 36.41 112.289 34.7623 111.996 32.679L117.947 32.3665C118.127 33.2472 118.563 33.9195 119.254 34.3835C119.946 34.8381 120.831 35.0653 121.911 35.0653C122.971 35.0653 123.823 34.8617 124.467 34.4545C125.121 34.0379 125.452 33.5028 125.462 32.8494C125.452 32.3002 125.22 31.8504 124.766 31.5C124.311 31.1402 123.61 30.8655 122.663 30.6761L118.885 29.9233C116.754 29.4972 115.168 28.7585 114.126 27.7074C113.094 26.6562 112.578 25.3163 112.578 23.6875C112.578 22.286 112.957 21.0786 113.714 20.0653C114.482 19.0521 115.556 18.2708 116.939 17.7216C118.331 17.1723 119.96 16.8977 121.825 16.8977C124.581 16.8977 126.75 17.4801 128.331 18.6449C129.922 19.8097 130.85 21.3958 131.115 23.4034ZM113.622 87V57.9091H119.773V69.9119H132.259V57.9091H138.395V87H132.259V74.983H119.773V87H113.622ZM161.435 57.9091H167.585V76.8011C167.585 78.9223 167.079 80.7784 166.065 82.3693C165.062 83.9602 163.655 85.2008 161.847 86.0909C160.038 86.9716 157.931 87.4119 155.526 87.4119C153.111 87.4119 150.999 86.9716 149.19 86.0909C147.382 85.2008 145.975 83.9602 144.972 82.3693C143.968 80.7784 143.466 78.9223 143.466 76.8011V57.9091H149.616V76.2756C149.616 77.3835 149.858 78.3684 150.341 79.2301C150.833 80.0919 151.525 80.7689 152.415 81.2614C153.305 81.7538 154.342 82 155.526 82C156.719 82 157.756 81.7538 158.636 81.2614C159.527 80.7689 160.213 80.0919 160.696 79.2301C161.188 78.3684 161.435 77.3835 161.435 76.2756V57.9091ZM172.646 87V57.9091H184.293C186.433 57.9091 188.219 58.2263 189.648 58.8608C191.078 59.4953 192.153 60.3759 192.873 61.5028C193.593 62.6203 193.952 63.9081 193.952 65.3665C193.952 66.5028 193.725 67.5019 193.271 68.3636C192.816 69.2159 192.191 69.9167 191.396 70.4659C190.61 71.0057 189.71 71.3892 188.697 71.6165V71.9006C189.805 71.9479 190.842 72.2604 191.808 72.8381C192.783 73.4157 193.574 74.2254 194.18 75.267C194.786 76.2992 195.089 77.5303 195.089 78.9602C195.089 80.5038 194.705 81.8816 193.938 83.0938C193.181 84.2964 192.058 85.2481 190.572 85.9489C189.085 86.6496 187.253 87 185.075 87H172.646ZM178.796 81.9716H183.81C185.524 81.9716 186.774 81.6449 187.56 80.9915C188.346 80.3286 188.739 79.4479 188.739 78.3494C188.739 77.5445 188.545 76.8343 188.157 76.2188C187.769 75.6032 187.215 75.1203 186.495 74.7699C185.785 74.4195 184.937 74.2443 183.952 74.2443H178.796V81.9716ZM178.796 70.0824H183.356C184.199 70.0824 184.947 69.9356 185.6 69.642C186.263 69.339 186.784 68.9129 187.163 68.3636C187.551 67.8144 187.745 67.1562 187.745 66.3892C187.745 65.3381 187.371 64.4905 186.623 63.8466C185.884 63.2027 184.833 62.8807 183.469 62.8807H178.796V70.0824Z" fill="url(#paint0_linear_199_537)"/>
<rect x="9" y="54" width="91" height="37" rx="18.5" fill="url(#paint1_linear_199_537)"/>
<rect x="149" y="14" width="45" height="28" rx="14" fill="url(#paint2_linear_199_537)"/>
<defs>
<linearGradient id="paint0_linear_199_537" x1="30.5" y1="21.5" x2="193" y2="74.5" gradientUnits="userSpaceOnUse">
<stop stop-color="#FF7E7E"/>
<stop offset="1" stop-color="#A811DD"/>
</linearGradient>
<linearGradient id="paint1_linear_199_537" x1="19.01" y1="58.4655" x2="103.347" y2="73.5038" gradientUnits="userSpaceOnUse">
<stop stop-color="#FF7F7F"/>
<stop offset="1" stop-color="#CC3EB6"/>
</linearGradient>
<linearGradient id="paint2_linear_199_537" x1="151.143" y1="16.5455" x2="196.651" y2="35.7009" gradientUnits="userSpaceOnUse">
<stop stop-color="#D144B2"/>
<stop offset="1" stop-color="#A811DD"/>
</linearGradient>
</defs>
</svg>
